<svg version="1.1" id="Layer_1" xmlns="http://www.w3.org/2000/svg" xmlns:xlink="http://www.w3.org/1999/xlink" x="0px" y="0px"
	 width="100%" viewBox="0 0 1080 1080" enable-background="new 0 0 1080 1080" xml:space="preserve">
<path fill="#000000" opacity="1.000000" stroke="none" 
	d="
M681.000000,1081.000000 
	C454.026123,1081.000000 227.552277,1081.000000 1.039205,1081.000000 
	C1.039205,721.067688 1.039205,361.135345 1.039205,1.101518 
	C360.890747,1.101518 720.781555,1.101518 1080.836182,1.101518 
	C1080.836182,360.999939 1080.836182,720.999939 1080.836182,1081.000000 
	C947.801575,1081.000000 814.650818,1081.000000 681.000000,1081.000000 
M301.000336,199.366959 
	C300.670258,199.262024 300.340149,199.157089 299.603668,198.937927 
	C299.603668,198.937927 299.181915,198.956573 298.950470,198.442902 
	C298.646851,198.231689 298.343201,198.020477 297.957153,197.363297 
	C297.785187,197.072113 297.530365,196.934906 296.902283,196.347275 
	C295.613434,195.516174 294.324585,194.685074 292.920776,193.388489 
	C292.731171,193.084000 292.457733,192.947693 291.914734,192.516983 
	C291.728973,192.156067 291.445770,192.046097 290.438599,191.886581 
	C284.271118,186.007233 278.603363,179.456451 271.818634,174.406387 
	C261.715973,166.886719 253.274368,156.983536 241.351074,152.095642 
	C238.343277,150.862625 234.154968,150.256210 231.368088,151.419556 
	C228.951340,152.428329 226.036789,156.592209 226.368057,158.933533 
	C227.062546,163.842194 229.027191,168.942749 231.767517,173.111893 
	C237.233353,181.427536 243.349396,189.349548 249.610367,197.100159 
	C257.206757,206.503860 265.198334,215.589981 273.079193,224.761703 
	C279.491028,232.223770 285.895691,239.696167 292.488068,246.997375 
	C296.599152,251.550461 300.535278,256.533142 305.479156,259.996613 
	C312.265747,264.751038 319.318085,268.888489 324.365417,275.776520 
	C327.979736,280.708923 332.296967,285.123840 336.259399,289.804474 
	C338.516693,292.470917 340.828827,295.108490 342.864563,297.940033 
	C344.910553,300.785736 346.501678,303.957916 348.540558,306.809418 
	C355.822540,316.993713 363.559845,326.871704 370.448181,337.312073 
	C376.067017,345.828308 380.718811,354.982544 385.013733,363.899872 
	C381.695160,362.781952 378.227509,361.973969 375.095612,360.467896 
	C371.156158,358.573547 367.674805,355.681702 363.676788,353.961731 
	C344.720184,345.806427 325.672882,337.860535 306.622925,329.923981 
	C290.681335,323.282410 274.664948,316.820129 258.729492,310.163971 
	C238.795120,301.837463 218.836578,293.560577 199.052689,284.887695 
	C193.887970,282.623566 189.471405,278.713501 184.471405,276.001617 
	C169.639282,267.956879 154.888153,259.714294 139.685165,252.425507 
	C133.483566,249.452255 126.286522,248.073090 119.385559,247.179245 
	C112.760490,246.321136 108.248207,253.322800 111.834175,259.063171 
	C115.477600,264.895538 120.253967,270.170746 125.217957,274.984924 
	C130.085022,279.705048 135.926086,283.403656 141.127625,287.801453 
	C145.427872,291.437164 149.135452,295.811859 153.602890,299.204346 
	C164.542038,307.511292 175.764267,315.445801 186.881180,323.518311 
	C195.377167,329.687653 203.693192,336.135620 212.482559,341.855286 
	C216.110825,344.216370 221.267975,344.245667 224.861481,346.639099 
	C234.937347,353.350098 245.038101,360.176880 254.257416,367.986877 
	C270.296234,381.573944 286.045380,395.553284 301.210297,410.103638 
	C311.145508,419.636261 319.843445,430.459076 329.086243,440.712433 
	C336.346069,448.765961 343.591644,456.832336 350.129791,465.320923 
	C347.216400,465.552185 344.281464,465.631317 341.393158,466.040009 
	C325.315918,468.314941 309.261536,470.753479 293.176849,472.973145 
	C277.871124,475.085388 262.372009,476.170502 247.257217,479.200348 
	C226.938080,483.273468 206.566193,487.708405 186.845428,493.968018 
	C166.597107,500.395111 147.122437,509.249847 127.274635,516.953125 
	C119.091415,520.129150 113.335930,525.641052 110.590141,533.977844 
	C109.641121,536.859314 109.768089,540.084167 108.919037,543.011658 
	C106.910484,549.937012 111.547432,558.989868 118.663246,559.813293 
	C125.002380,560.546875 131.566437,560.120239 137.948929,559.436951 
	C142.678574,558.930603 147.216858,556.570862 151.943878,556.118713 
	C165.834930,554.790039 179.773834,553.944397 193.701202,553.018066 
	C205.033264,552.264282 216.370087,551.539246 227.715210,551.036438 
	C238.960037,550.538025 250.219452,550.378540 261.469421,549.983398 
	C268.389282,549.740356 275.304321,549.350891 282.220032,548.997925 
	C301.641632,548.006775 321.151581,547.808594 340.448242,545.679871 
	C351.058044,544.509338 359.116760,545.730835 366.807159,553.748779 
	C373.490021,560.716309 381.861786,566.080811 389.579437,572.034180 
	C397.017639,577.771912 404.330322,583.725220 412.153503,588.894653 
	C418.702942,593.222534 425.796265,596.784241 432.849030,600.281311 
	C447.076599,607.336060 460.991638,615.361450 475.853668,620.715881 
	C497.793701,628.620300 520.981995,631.672058 544.291321,631.842102 
	C561.953979,631.971008 579.764526,631.801819 597.258606,629.689209 
	C616.448608,627.371704 635.452576,623.123108 654.346008,618.865662 
	C668.864136,615.594177 683.560730,612.182007 697.291687,606.637573 
	C708.765503,602.004700 719.768372,595.222168 729.516785,587.536072 
	C743.214600,576.736145 757.457825,566.150818 767.860413,550.992065 
	C769.473816,550.333313 771.208862,549.872375 772.673279,548.971375 
	C775.137390,547.455383 777.469910,545.712891 779.777222,543.959717 
	C780.941101,543.075378 782.792725,541.963440 782.798462,540.945801 
	C782.807739,539.305298 781.898132,537.342468 780.756958,536.072876 
	C777.528503,532.480957 773.985413,529.171631 769.830078,525.014526 
	C769.140808,525.014526 767.153442,525.014526 764.861694,524.325745 
	C764.365173,523.162354 763.842407,522.009399 763.376465,520.833923 
	C760.574829,513.766602 754.136353,510.576782 748.193604,507.100128 
	C740.192017,502.419067 731.076355,499.304413 723.873047,493.680450 
	C714.384705,486.272461 703.160889,483.583405 692.518066,479.429474 
	C682.547852,475.537994 672.044128,472.864227 661.605896,470.360291 
	C649.539246,467.465729 637.287415,465.342773 625.004883,462.189545 
	C620.340271,456.620575 615.913452,450.829315 610.960205,445.530151 
	C601.468872,435.375916 591.725464,425.454895 581.973938,415.547943 
	C579.916809,413.458038 577.133484,412.078033 575.101135,409.969543 
	C568.437195,403.055908 562.112915,395.811249 555.364502,388.984009 
	C551.230713,384.801880 546.536743,381.176544 542.136658,377.253632 
	C538.218323,373.760254 534.569763,369.927185 530.426208,366.731476 
	C522.903381,360.929565 515.075684,355.524475 507.430481,349.878845 
	C504.919983,348.024994 502.580566,345.939362 499.892853,343.354248 
	C499.262787,343.194672 498.632751,343.035095 498.017975,342.975555 
	C498.017975,342.975555 498.116119,342.950867 497.954498,342.256012 
	C496.653290,341.462860 495.352112,340.669708 494.026764,339.973206 
	C494.026764,339.973206 494.125580,339.985840 493.917511,339.474976 
	C493.615631,339.279236 493.313721,339.083496 493.013580,338.988159 
	C493.013580,338.988159 493.113708,338.980743 492.924774,338.460297 
	C492.622284,338.261841 492.319794,338.063416 492.024323,337.982147 
	C492.024323,337.982147 492.140533,337.965912 491.954376,337.441681 
	C491.645111,337.258514 491.335846,337.075348 491.013031,336.983582 
	C491.013031,336.983582 491.105133,336.990723 490.896179,336.545837 
	C490.714630,336.200409 490.436249,336.080994 489.639191,335.973236 
	C489.639191,335.973236 489.166077,335.964478 488.931641,335.460815 
	C488.625610,335.265717 488.319550,335.070618 488.011017,334.987152 
	C488.011017,334.987152 488.122650,334.984344 487.920044,334.469666 
	C487.617676,334.272278 487.315308,334.074921 487.014526,333.987762 
	C487.014526,333.987762 487.124481,333.980194 486.927795,333.463684 
	C486.624084,333.270752 486.320374,333.077789 486.017975,332.983521 
	C486.017975,332.983521 486.116272,332.974640 485.930359,332.496094 
	C485.638062,332.385529 485.345795,332.274963 484.612579,331.985992 
	C484.612579,331.985992 484.137146,331.971252 483.928497,331.460754 
	C483.624512,331.268707 483.320557,331.076660 483.010742,330.988708 
	C483.010742,330.988708 483.115021,330.989655 482.904205,330.482574 
	C482.605286,330.283417 482.306335,330.084259 482.011108,329.988770 
	C482.011108,329.988770 482.114532,329.980103 481.926147,329.460938 
	C481.623077,329.266998 481.320038,329.073029 481.086029,328.966949 
	C481.086029,328.966949 481.165863,328.888763 480.836700,328.199402 
	C480.069092,328.068726 479.301514,327.938080 478.560120,327.135925 
	C475.482880,324.720917 472.498474,322.174835 469.309814,319.917206 
	C461.928894,314.691498 454.313660,309.788544 447.046326,304.412903 
	C439.263672,298.656097 431.919373,292.303528 424.095459,286.606934 
	C419.462524,283.233734 413.621490,281.335052 409.469879,277.524567 
	C401.261078,269.990204 391.575195,264.860931 382.457001,258.769135 
	C372.131958,251.871078 362.433197,244.043381 352.248871,236.925003 
	C338.218262,227.118301 323.987793,217.597549 309.887695,207.433685 
	C309.605530,207.240692 309.323395,207.047684 309.031738,206.967819 
	C309.031738,206.967819 309.145172,206.963089 308.949493,206.440811 
	C308.643799,206.243454 308.338104,206.046112 308.027344,205.972916 
	C308.027344,205.972916 308.151398,205.965942 307.950256,205.444168 
	C307.643463,205.247513 307.336639,205.050858 307.043243,204.953796 
	C307.043243,204.953796 307.138367,204.921417 306.846527,204.317490 
	C305.922424,203.824127 304.998352,203.330765 304.041534,202.946686 
	C304.041534,202.946686 304.154907,202.959625 303.963593,202.431107 
	C303.656403,202.230499 303.349213,202.029892 303.027588,201.966873 
	C303.027588,201.966873 303.165924,201.967941 302.946655,201.450745 
	C302.639618,201.250107 302.332581,201.049469 302.023010,200.979019 
	C302.023010,200.979019 302.153015,200.971817 301.942169,200.455109 
	C301.637238,200.256042 301.332336,200.056976 301.082581,199.972275 
	C301.082581,199.972275 301.189423,199.903595 301.000336,199.366959 
z"/>
<path fill="#FFFFFF" opacity="1.000000" stroke="none" 
	d="
M767.098206,551.029175 
	C757.457825,566.150818 743.214600,576.736145 729.516785,587.536072 
	C719.768372,595.222168 708.765503,602.004700 697.291687,606.637573 
	C683.560730,612.182007 668.864136,615.594177 654.346008,618.865662 
	C635.452576,623.123108 616.448608,627.371704 597.258606,629.689209 
	C579.764526,631.801819 561.953979,631.971008 544.291321,631.842102 
	C520.981995,631.672058 497.793701,628.620300 475.853668,620.715881 
	C460.991638,615.361450 447.076599,607.336060 432.849030,600.281311 
	C425.796265,596.784241 418.702942,593.222534 412.153503,588.894653 
	C404.330322,583.725220 397.017639,577.771912 389.579437,572.034180 
	C381.861786,566.080811 373.490021,560.716309 366.807159,553.748779 
	C359.116760,545.730835 351.058044,544.509338 340.448242,545.679871 
	C321.151581,547.808594 301.641632,548.006775 282.220032,548.997925 
	C275.304321,549.350891 268.389282,549.740356 261.469421,549.983398 
	C250.219452,550.378540 238.960037,550.538025 227.715210,551.036438 
	C216.370087,551.539246 205.033264,552.264282 193.701202,553.018066 
	C179.773834,553.944397 165.834930,554.790039 151.943878,556.118713 
	C147.216858,556.570862 142.678574,558.930603 137.948929,559.436951 
	C131.566437,560.120239 125.002380,560.546875 118.663246,559.813293 
	C111.547432,558.989868 106.910484,549.937012 108.919037,543.011658 
	C109.768089,540.084167 109.641121,536.859314 110.590141,533.977844 
	C113.335930,525.641052 119.091415,520.129150 127.274635,516.953125 
	C147.122437,509.249847 166.597107,500.395111 186.845428,493.968018 
	C206.566193,487.708405 226.938080,483.273468 247.257217,479.200348 
	C262.372009,476.170502 277.871124,475.085388 293.176849,472.973145 
	C309.261536,470.753479 325.315918,468.314941 341.393158,466.040009 
	C344.281464,465.631317 347.216400,465.552185 350.848969,465.107544 
	C353.222229,466.245270 355.074371,467.415741 356.498169,468.976868 
	C365.565308,478.918182 374.253174,489.221771 383.612793,498.875916 
	C395.735779,511.380402 407.725586,523.931213 422.554169,533.668152 
	C431.560333,539.581909 440.549500,545.068237 450.788666,547.937317 
	C471.457581,553.728638 492.338898,558.240295 513.836548,560.508545 
	C529.842712,562.197327 545.652222,563.558777 561.785339,563.249451 
	C576.033325,562.976379 589.774536,560.401672 603.616516,557.901733 
	C621.600586,554.653809 637.773560,547.503723 651.787903,535.558899 
	C656.953552,531.156128 657.038086,530.199280 651.350220,526.563232 
	C641.419373,520.214783 631.285706,514.123962 621.781250,507.180267 
	C601.141296,492.101318 580.836426,476.563507 560.433716,461.161346 
	C559.488953,460.448181 558.925720,459.229706 558.586914,458.241425 
	C561.127686,458.447662 563.262817,458.708466 565.405518,458.862427 
	C579.267639,459.858368 593.129944,460.851318 606.995239,461.801941 
	C613.031860,462.215790 619.075562,462.526947 625.116028,462.884766 
	C637.287415,465.342773 649.539246,467.465729 661.605896,470.360291 
	C672.044128,472.864227 682.547852,475.537994 692.518066,479.429474 
	C703.160889,483.583405 714.384705,486.272461 723.873047,493.680450 
	C731.076355,499.304413 740.192017,502.419067 748.193604,507.100128 
	C754.136353,510.576782 760.574829,513.766602 763.376465,520.833923 
	C763.842407,522.009399 764.365173,523.162354 764.922363,525.096313 
	C765.153137,531.394897 765.177429,536.932861 765.552979,542.446899 
	C765.749390,545.329346 766.563232,548.169800 767.098206,551.029175 
M715.076355,548.537292 
	C719.912903,545.087708 720.481628,540.042297 720.003174,534.754639 
	C719.544617,529.686279 715.814941,527.178040 710.897339,528.337219 
	C705.207153,529.678528 701.127319,535.823486 702.101562,541.585144 
	C702.939575,546.541138 707.705566,549.355530 715.076355,548.537292 
z"/>
<path fill="#C6C6DC" opacity="1.000000" stroke="none" 
	d="
M558.184814,458.246582 
	C558.925720,459.229706 559.488953,460.448181 560.433716,461.161346 
	C580.836426,476.563507 601.141296,492.101318 621.781250,507.180267 
	C631.285706,514.123962 641.419373,520.214783 651.350220,526.563232 
	C657.038086,530.199280 656.953552,531.156128 651.787903,535.558899 
	C637.773560,547.503723 621.600586,554.653809 603.616516,557.901733 
	C589.774536,560.401672 576.033325,562.976379 561.785339,563.249451 
	C545.652222,563.558777 529.842712,562.197327 513.836548,560.508545 
	C492.338898,558.240295 471.457581,553.728638 450.788666,547.937317 
	C440.549500,545.068237 431.560333,539.581909 422.554169,533.668152 
	C407.725586,523.931213 395.735779,511.380402 383.612793,498.875916 
	C374.253174,489.221771 365.565308,478.918182 356.498169,468.976868 
	C355.074371,467.415741 353.222229,466.245270 351.205872,464.893585 
	C343.591644,456.832336 336.346069,448.765961 329.086243,440.712433 
	C319.843445,430.459076 311.145508,419.636261 301.210297,410.103638 
	C286.045380,395.553284 270.296234,381.573944 254.257416,367.986877 
	C245.038101,360.176880 234.937347,353.350098 224.861481,346.639099 
	C221.267975,344.245667 216.110825,344.216370 212.482559,341.855286 
	C203.693192,336.135620 195.377167,329.687653 186.881180,323.518311 
	C175.764267,315.445801 164.542038,307.511292 153.602890,299.204346 
	C149.135452,295.811859 145.427872,291.437164 141.127625,287.801453 
	C135.926086,283.403656 130.085022,279.705048 125.217957,274.984924 
	C120.253967,270.170746 115.477600,264.895538 111.834175,259.063171 
	C108.248207,253.322800 112.760490,246.321136 119.385559,247.179245 
	C126.286522,248.073090 133.483566,249.452255 139.685165,252.425507 
	C154.888153,259.714294 169.639282,267.956879 184.471405,276.001617 
	C189.471405,278.713501 193.887970,282.623566 199.052689,284.887695 
	C218.836578,293.560577 238.795120,301.837463 258.729492,310.163971 
	C274.664948,316.820129 290.681335,323.282410 306.622925,329.923981 
	C325.672882,337.860535 344.720184,345.806427 363.676788,353.961731 
	C367.674805,355.681702 371.156158,358.573547 375.095612,360.467896 
	C378.227509,361.973969 381.695160,362.781952 385.751038,363.978424 
	C392.774872,367.355164 398.951447,370.886749 405.368103,373.908539 
	C426.080872,383.662720 447.340454,392.368286 467.519073,403.112427 
	C487.374329,413.684387 506.182129,426.227142 525.420166,437.953308 
	C533.156189,442.668640 540.810913,447.517303 548.508728,452.295380 
	C551.725891,454.292328 554.958984,456.263611 558.184814,458.246582 
z"/>
<path fill="#A2A2BA" opacity="1.000000" stroke="none" 
	d="
M558.586914,458.241425 
	C554.958984,456.263611 551.725891,454.292328 548.508728,452.295380 
	C540.810913,447.517303 533.156189,442.668640 525.420166,437.953308 
	C506.182129,426.227142 487.374329,413.684387 467.519073,403.112427 
	C447.340454,392.368286 426.080872,383.662720 405.368103,373.908539 
	C398.951447,370.886749 392.774872,367.355164 386.143860,363.955444 
	C380.718811,354.982544 376.067017,345.828308 370.448181,337.312073 
	C363.559845,326.871704 355.822540,316.993713 348.540558,306.809418 
	C346.501678,303.957916 344.910553,300.785736 342.864563,297.940033 
	C340.828827,295.108490 338.516693,292.470917 336.259399,289.804474 
	C332.296967,285.123840 327.979736,280.708923 324.365417,275.776520 
	C319.318085,268.888489 312.265747,264.751038 305.479156,259.996613 
	C300.535278,256.533142 296.599152,251.550461 292.488068,246.997375 
	C285.895691,239.696167 279.491028,232.223770 273.079193,224.761703 
	C265.198334,215.589981 257.206757,206.503860 249.610367,197.100159 
	C243.349396,189.349548 237.233353,181.427536 231.767517,173.111893 
	C229.027191,168.942749 227.062546,163.842194 226.368057,158.933533 
	C226.036789,156.592209 228.951340,152.428329 231.368088,151.419556 
	C234.154968,150.256210 238.343277,150.862625 241.351074,152.095642 
	C253.274368,156.983536 261.715973,166.886719 271.818634,174.406387 
	C278.603363,179.456451 284.271118,186.007233 290.882141,192.216370 
	C291.570923,192.713821 291.829193,192.858292 292.100464,192.979553 
	C292.457733,192.947693 292.731171,193.084000 292.995331,193.995773 
	C294.444122,195.385941 295.818390,196.168823 297.192627,196.951691 
	C297.530365,196.934906 297.785187,197.072113 298.104736,197.850983 
	C298.562195,198.544647 298.872070,198.750610 299.181915,198.956573 
	C299.181915,198.956573 299.603668,198.937927 299.887573,199.259155 
	C300.510803,199.688141 300.850128,199.795868 301.189423,199.903595 
	C301.189423,199.903595 301.082581,199.972275 301.161926,200.171112 
	C301.545197,200.570572 301.849091,200.771194 302.153015,200.971817 
	C302.153015,200.971817 302.023010,200.979019 302.131561,201.174377 
	C302.548706,201.569122 302.857330,201.768539 303.165924,201.967941 
	C303.165924,201.967941 303.027588,201.966873 303.120850,202.170944 
	C303.527710,202.569885 303.841309,202.764755 304.154907,202.959625 
	C304.154907,202.959625 304.041534,202.946686 304.081482,203.260101 
	C305.127045,204.022812 306.132721,204.472107 307.138367,204.921417 
	C307.138367,204.921417 307.043243,204.953796 307.136047,205.166061 
	C307.536346,205.574188 307.843872,205.770065 308.151398,205.965942 
	C308.151398,205.965942 308.027344,205.972916 308.125916,206.175079 
	C308.531372,206.572540 308.838287,206.767807 309.145172,206.963089 
	C309.145172,206.963089 309.031738,206.967819 309.107544,207.138718 
	C309.300171,207.629974 309.520020,207.844879 309.842926,207.954300 
	C323.987793,217.597549 338.218262,227.118301 352.248871,236.925003 
	C362.433197,244.043381 372.131958,251.871078 382.457001,258.769135 
	C391.575195,264.860931 401.261078,269.990204 409.469879,277.524567 
	C413.621490,281.335052 419.462524,283.233734 424.095459,286.606934 
	C431.919373,292.303528 439.263672,298.656097 447.046326,304.412903 
	C454.313660,309.788544 461.928894,314.691498 469.309814,319.917206 
	C472.498474,322.174835 475.482880,324.720917 478.835266,327.721680 
	C479.795532,328.501190 480.480713,328.694977 481.165863,328.888763 
	C481.165863,328.888763 481.086029,328.966949 481.167694,329.165161 
	C481.537750,329.568939 481.826141,329.774506 482.114532,329.980103 
	C482.114532,329.980103 482.011108,329.988770 482.141296,330.169708 
	C482.552673,330.563629 482.833832,330.776642 483.115021,330.989655 
	C483.115021,330.989655 483.010742,330.988708 483.131165,331.181458 
	C483.546814,331.573181 483.841980,331.772217 484.137146,331.971252 
	C484.137146,331.971252 484.612579,331.985992 484.956573,332.269043 
	C485.549255,332.737793 485.821167,332.878632 486.116272,332.974640 
	C486.116272,332.974640 486.017975,332.983521 486.132812,333.179138 
	C486.539917,333.576569 486.832214,333.778381 487.124481,333.980194 
	C487.124481,333.980194 487.014526,333.987762 487.135559,334.174500 
	C487.545288,334.568939 487.833954,334.776642 488.122650,334.984344 
	C488.122650,334.984344 488.011017,334.987152 488.134613,335.178467 
	C488.560852,335.567993 488.863464,335.766235 489.166077,335.964478 
	C489.166077,335.964478 489.639191,335.973236 489.987457,336.255615 
	C490.585510,336.700195 490.841980,336.851105 491.105133,336.990723 
	C491.105133,336.990723 491.013031,336.983582 491.115387,337.196167 
	C491.525330,337.594452 491.832916,337.780182 492.140533,337.965912 
	C492.140533,337.965912 492.024323,337.982147 492.134888,338.170776 
	C492.534882,338.566498 492.824280,338.773621 493.113708,338.980743 
	C493.113708,338.980743 493.013580,338.988159 493.136169,339.177551 
	C493.547668,339.573273 493.836639,339.779541 494.125580,339.985840 
	C494.125580,339.985840 494.026764,339.973206 494.066772,340.274719 
	C495.443237,341.367737 496.779694,342.159302 498.116119,342.950867 
	C498.116119,342.950867 498.017975,342.975555 498.180908,343.205322 
	C498.950195,343.609924 499.556580,343.784790 500.162933,343.959686 
	C502.580566,345.939362 504.919983,348.024994 507.430481,349.878845 
	C515.075684,355.524475 522.903381,360.929565 530.426208,366.731476 
	C534.569763,369.927185 538.218323,373.760254 542.136658,377.253632 
	C546.536743,381.176544 551.230713,384.801880 555.364502,388.984009 
	C562.112915,395.811249 568.437195,403.055908 575.101135,409.969543 
	C577.133484,412.078033 579.916809,413.458038 581.973938,415.547943 
	C591.725464,425.454895 601.468872,435.375916 610.960205,445.530151 
	C615.913452,450.829315 620.340271,456.620575 625.060425,462.537170 
	C619.075562,462.526947 613.031860,462.215790 606.995239,461.801941 
	C593.129944,460.851318 579.267639,459.858368 565.405518,458.862427 
	C563.262817,458.708466 561.127686,458.447662 558.586914,458.241425 
z"/>
<path fill="#FF7302" opacity="1.000000" stroke="none" 
	d="
M767.479309,551.010620 
	C766.563232,548.169800 765.749390,545.329346 765.552979,542.446899 
	C765.177429,536.932861 765.153137,531.394897 765.074585,525.440674 
	C767.153442,525.014526 769.140808,525.014526 769.830078,525.014526 
	C773.985413,529.171631 777.528503,532.480957 780.756958,536.072876 
	C781.898132,537.342468 782.807739,539.305298 782.798462,540.945801 
	C782.792725,541.963440 780.941101,543.075378 779.777222,543.959717 
	C777.469910,545.712891 775.137390,547.455383 772.673279,548.971375 
	C771.208862,549.872375 769.473816,550.333313 767.479309,551.010620 
z"/>
<path fill="#C6C6DC" opacity="1.000000" stroke="none" 
	d="
M498.035309,342.603455 
	C496.779694,342.159302 495.443237,341.367737 494.078857,340.226379 
	C495.352112,340.669708 496.653290,341.462860 498.035309,342.603455 
z"/>
<path fill="#C6C6DC" opacity="1.000000" stroke="none" 
	d="
M297.047455,196.649475 
	C295.818390,196.168823 294.444122,195.385941 293.052795,194.228516 
	C294.324585,194.685074 295.613434,195.516174 297.047455,196.649475 
z"/>
<path fill="#C6C6DC" opacity="1.000000" stroke="none" 
	d="
M306.992432,204.619446 
	C306.132721,204.472107 305.127045,204.022812 304.097839,203.205444 
	C304.998352,203.330765 305.922424,203.824127 306.992432,204.619446 
z"/>
<path fill="#C6C6DC" opacity="1.000000" stroke="none" 
	d="
M500.027893,343.656982 
	C499.556580,343.784790 498.950195,343.609924 498.173279,343.155273 
	C498.632751,343.035095 499.262787,343.194672 500.027893,343.656982 
z"/>
<path fill="#C6C6DC" opacity="1.000000" stroke="none" 
	d="
M481.001282,328.544067 
	C480.480713,328.694977 479.795532,328.501190 478.822144,328.057434 
	C479.301514,327.938080 480.069092,328.068726 481.001282,328.544067 
z"/>
<path fill="#C6C6DC" opacity="1.000000" stroke="none" 
	d="
M484.032837,331.716003 
	C483.841980,331.772217 483.546814,331.573181 483.134094,331.129395 
	C483.320557,331.076660 483.624512,331.268707 484.032837,331.716003 
z"/>
<path fill="#C6C6DC" opacity="1.000000" stroke="none" 
	d="
M494.021545,339.730408 
	C493.836639,339.779541 493.547668,339.573273 493.135284,339.127380 
	C493.313721,339.083496 493.615631,339.279236 494.021545,339.730408 
z"/>
<path fill="#C6C6DC" opacity="1.000000" stroke="none" 
	d="
M493.019226,338.720520 
	C492.824280,338.773621 492.534882,338.566498 492.131378,338.112183 
	C492.319794,338.063416 492.622284,338.261841 493.019226,338.720520 
z"/>
<path fill="#C6C6DC" opacity="1.000000" stroke="none" 
	d="
M492.047455,337.703796 
	C491.832916,337.780182 491.525330,337.594452 491.122162,337.150452 
	C491.335846,337.075348 491.645111,337.258514 492.047455,337.703796 
z"/>
<path fill="#C6C6DC" opacity="1.000000" stroke="none" 
	d="
M491.000671,336.768280 
	C490.841980,336.851105 490.585510,336.700195 490.198364,336.362793 
	C490.436249,336.080994 490.714630,336.200409 491.000671,336.768280 
z"/>
<path fill="#C6C6DC" opacity="1.000000" stroke="none" 
	d="
M489.048859,335.712646 
	C488.863464,335.766235 488.560852,335.567993 488.135864,335.122650 
	C488.319550,335.070618 488.625610,335.265717 489.048859,335.712646 
z"/>
<path fill="#C6C6DC" opacity="1.000000" stroke="none" 
	d="
M488.021362,334.726990 
	C487.833954,334.776642 487.545288,334.568939 487.134766,334.119385 
	C487.315308,334.074921 487.617676,334.272278 488.021362,334.726990 
z"/>
<path fill="#C6C6DC" opacity="1.000000" stroke="none" 
	d="
M487.026123,333.721924 
	C486.832214,333.778381 486.539917,333.576569 486.132141,333.129822 
	C486.320374,333.077789 486.624084,333.270752 487.026123,333.721924 
z"/>
<path fill="#C6C6DC" opacity="1.000000" stroke="none" 
	d="
M486.023315,332.735352 
	C485.821167,332.878632 485.549255,332.737793 485.177063,332.358276 
	C485.345795,332.274963 485.638062,332.385529 486.023315,332.735352 
z"/>
<path fill="#C6C6DC" opacity="1.000000" stroke="none" 
	d="
M483.009613,330.736115 
	C482.833832,330.776642 482.552673,330.563629 482.139465,330.117859 
	C482.306335,330.084259 482.605286,330.283417 483.009613,330.736115 
z"/>
<path fill="#C6C6DC" opacity="1.000000" stroke="none" 
	d="
M482.020325,329.720520 
	C481.826141,329.774506 481.537750,329.568939 481.133179,329.121216 
	C481.320038,329.073029 481.623077,329.266998 482.020325,329.720520 
z"/>
<path fill="#C6C6DC" opacity="1.000000" stroke="none" 
	d="
M309.865295,207.694000 
	C309.520020,207.844879 309.300171,207.629974 309.112305,207.082153 
	C309.323395,207.047684 309.605530,207.240692 309.865295,207.694000 
z"/>
<path fill="#C6C6DC" opacity="1.000000" stroke="none" 
	d="
M309.047333,206.701950 
	C308.838287,206.767807 308.531372,206.572540 308.128448,206.113007 
	C308.338104,206.046112 308.643799,206.243454 309.047333,206.701950 
z"/>
<path fill="#C6C6DC" opacity="1.000000" stroke="none" 
	d="
M308.050842,205.705048 
	C307.843872,205.770065 307.536346,205.574188 307.129333,205.116257 
	C307.336639,205.050858 307.643463,205.247513 308.050842,205.705048 
z"/>
<path fill="#C6C6DC" opacity="1.000000" stroke="none" 
	d="
M304.059265,202.695374 
	C303.841309,202.764755 303.527710,202.569885 303.128052,202.102158 
	C303.349213,202.029892 303.656403,202.230499 304.059265,202.695374 
z"/>
<path fill="#C6C6DC" opacity="1.000000" stroke="none" 
	d="
M303.056274,201.709351 
	C302.857330,201.768539 302.548706,201.569122 302.132812,201.109283 
	C302.332581,201.049469 302.639618,201.250107 303.056274,201.709351 
z"/>
<path fill="#C6C6DC" opacity="1.000000" stroke="none" 
	d="
M302.047607,200.713470 
	C301.849091,200.771194 301.545197,200.570572 301.134338,200.113937 
	C301.332336,200.056976 301.637238,200.256042 302.047607,200.713470 
z"/>
<path fill="#C6C6DC" opacity="1.000000" stroke="none" 
	d="
M301.094879,199.635284 
	C300.850128,199.795868 300.510803,199.688141 300.090790,199.316269 
	C300.340149,199.157089 300.670258,199.262024 301.094879,199.635284 
z"/>
<path fill="#C6C6DC" opacity="1.000000" stroke="none" 
	d="
M299.066193,198.699738 
	C298.872070,198.750610 298.562195,198.544647 298.145966,198.073975 
	C298.343201,198.020477 298.646851,198.231689 299.066193,198.699738 
z"/>
<path fill="#C6C6DC" opacity="1.000000" stroke="none" 
	d="
M292.007599,192.748260 
	C291.829193,192.858292 291.570923,192.713821 291.195404,192.366623 
	C291.445770,192.046097 291.728973,192.156067 292.007599,192.748260 
z"/>
<path fill="#000000" opacity="1.000000" stroke="none" 
	d="
M714.757446,548.703857 
	C707.705566,549.355530 702.939575,546.541138 702.101562,541.585144 
	C701.127319,535.823486 705.207153,529.678528 710.897339,528.337219 
	C715.814941,527.178040 719.544617,529.686279 720.003174,534.754639 
	C720.481628,540.042297 719.912903,545.087708 714.757446,548.703857 
z"/>
</svg>